<svg xmlns="http://www.w3.org/2000/svg" version="1.1" xmlns:xlink="http://www.w3.org/1999/xlink" xmlns:svgjs="http://svgjs.dev/svgjs" width="2000" height="1000" preserveAspectRatio="none" viewBox="0 0 2000 1000"><g mask="url(&quot;#SvgjsMask1063&quot;)" fill="none"><rect width="2000" height="1000" x="0" y="0" fill="rgba(248, 249, 250, 1)"></rect><path d="M1034.98 815.43 a95.8 95.8 0 1 0 191.6 0 a95.8 95.8 0 1 0 -191.6 0z" fill="#037b0b"></path><path d="M14.7 661.03L109.08 661.03L109.08 755.41L14.7 755.41z" fill="#037b0b"></path><path d="M1745.7 835.06L1760.33 835.06L1760.33 904.54L1745.7 904.54z" stroke="rgba(46, 125, 50, 1)"></path><path d="M1775.77 888.46 a70.93 70.93 0 1 0 141.86 0 a70.93 70.93 0 1 0 -141.86 0z" fill="rgba(46, 125, 50, 1)"></path><path d="M1141.66 267.26a7.92 7.92 0 1 0 5.52 14.85z" fill="rgba(46, 125, 50, 1)"></path><path d="M510.62 659.07a27.9 27.9 0 1 0 28.05 48.24z" fill="rgba(46, 125, 50, 1)"></path><path d="M1770.11 199.45L1841.63 199.45L1841.63 270.97L1770.11 270.97z" stroke="rgba(46, 125, 50, 1)"></path><path d="M953 169.53L978.16 169.53L978.16 224.81L953 224.81z" fill="rgba(46, 125, 50, 1)"></path><path d="M232.92 237.93a37.13 37.13 0 1 0-74.24-1.86z" fill="rgba(76, 175, 80, 1)"></path><path d="M1239.23 212.94a37.23 37.23 0 1 0-38.68-63.63z" fill="rgba(76, 175, 80, 1)"></path><path d="M607.18 132.53L673.96 132.53L673.96 199.31L607.18 199.31z" stroke="rgba(76, 175, 80, 1)"></path><path d="M1936.05 137.17L1969.75 137.17L1969.75 170.87L1936.05 170.87z" stroke="rgba(76, 175, 80, 1)"></path><path d="M955.2 34.32 a86.21 86.21 0 1 0 172.42 0 a86.21 86.21 0 1 0 -172.42 0z" stroke="#037b0b"></path><path d="M671.89 392.78L681.22 392.78L681.22 394.09L671.89 394.09z" stroke="rgba(76, 175, 80, 1)"></path><path d="M427.71 729.93L493.92 729.93L493.92 796.14L427.71 796.14z" stroke="rgba(46, 125, 50, 1)"></path><path d="M132.17 59.18L218.86 59.18L218.86 102.98L132.17 102.98z" stroke="#037b0b"></path><path d="M760.43 719.15a94.11 94.11 0 1 0 159.98-99.16z" stroke="#037b0b"></path><path d="M1855.19 843.21L1923.26 843.21L1923.26 870.34L1855.19 870.34z" stroke="#037b0b"></path><path d="M165 95.77L259.55 95.77L259.55 190.32L165 190.32z" stroke="rgba(76, 175, 80, 1)"></path><path d="M172.44 731.13a3.75 3.75 0 1 0 0.06 7.5z" stroke="rgba(76, 175, 80, 1)"></path><path d="M1391.63 276.44L1443.55 276.44L1443.55 328.36L1391.63 328.36z" stroke="rgba(46, 125, 50, 1)"></path><path d="M445.57 560.45 a13.8 13.8 0 1 0 27.6 0 a13.8 13.8 0 1 0 -27.6 0z" fill="rgba(46, 125, 50, 1)"></path><path d="M706.93 968.43 a74.38 74.38 0 1 0 148.76 0 a74.38 74.38 0 1 0 -148.76 0z" stroke="rgba(46, 125, 50, 1)"></path><path d="M498.62 179.28L537.24 179.28L537.24 217.9L498.62 217.9z" stroke="#037b0b"></path><path d="M403.22 224.44L480.53 224.44L480.53 301.75L403.22 301.75z" stroke="rgba(76, 175, 80, 1)"></path></g><defs><mask id="SvgjsMask1063"><rect width="2000" height="1000" fill="#ffffff"></rect></mask></defs></svg>